<?xml version="1.0" encoding="UTF-8"?>
<svg id="OBJECTS" xmlns="http://www.w3.org/2000/svg" viewBox="0 0 554.55 523.15">
  <defs>
    <style>
      .cls-1 {
        letter-spacing: .05em;
      }

      .cls-2 {
        fill: #00c2b4;
      }

      .cls-3 {
        fill: #fff;
        font-family: Outfit-Bold, Outfit;
        font-size: 60.22px;
        font-weight: 700;
      }

      .cls-4 {
        fill: none;
        stroke: #3f6438;
        stroke-miterlimit: 10;
        stroke-width: 6px;
      }

      .cls-4, .cls-5 {
        opacity: .81;
      }

      .cls-6 {
        fill: #ffe153;
      }

      .cls-7 {
        letter-spacing: .03em;
      }

      .cls-8 {
        fill: #ffa259;
      }

      .cls-9 {
        letter-spacing: .04em;
      }

      .cls-10 {
        fill: #9dd288;
      }

      .cls-11 {
        letter-spacing: .02em;
      }

      .cls-5 {
        fill: #3f6438;
      }

      .cls-12 {
        letter-spacing: 0em;
      }

      .cls-13 {
        letter-spacing: .02em;
      }

      .cls-14 {
        letter-spacing: .01em;
      }

      .cls-15 {
        letter-spacing: .02em;
      }
    </style>
  </defs>
  <text class="cls-3" transform="translate(54.95 394.81)"><tspan class="cls-11" x="0" y="0">E</tspan><tspan class="cls-12" x="38.36" y="0">C</tspan><tspan class="cls-1" x="80.27" y="0">O</tspan><tspan class="cls-7" x="131.94" y="0">-</tspan><tspan class="cls-13" x="161.87" y="0">E</tspan><tspan class="cls-9" x="199.92" y="0">S</tspan><tspan class="cls-12" x="237.5" y="0">C</tspan><tspan class="cls-7" x="279.41" y="0">O</tspan><tspan class="cls-15" x="330.06" y="0">L</tspan><tspan class="cls-14" x="364.8" y="0">A</tspan><tspan class="cls-7" x="409.54" y="0">S</tspan></text>
  <g>
    <g>
      <path class="cls-2" d="M285.83,326.69c-.12.26-.24.5-.35.76,76.76-18.88,162.78-7.83,198.76-1.63l-62.34-39.87c-36.21,3.73-88.66,9.9-136.07,40.74Z"/>
      <path class="cls-10" d="M392.7,246.25c-.46.18-.9.36-1.36.54-27,10.68-62.83,24.87-96.3,61.35-1.28,2.4-2.56,4.86-3.84,7.39,47.75-27.81,98.69-33.04,133.42-36.59,19.73-2.02,35.87-3.67,40.58-8.54l-72.5-24.15Z"/>
      <path class="cls-6" d="M434.77,207.85l-49.65.07c-5.86,5.73-12.4,11.12-19.41,16.89-17.27,14.23-37.5,30.9-57.49,61.18,28.82-24.91,57.83-36.4,80.67-45.43,24.41-9.66,41.13-16.27,45.89-32.71Z"/>
      <path class="cls-8" d="M282.95,302.19v14.91c26.44-54.57,55.11-78.18,78.49-97.45,20.75-17.09,36.11-29.74,42.19-57.27l-83.63,30.78c-4.48,26.32-12.91,39.52-20.38,51.19-8.95,13.99-16.68,26.08-16.68,57.84Z"/>
    </g>
    <g>
      <path class="cls-2" d="M269.59,325.6c.12.26.24.5.35.76-76.76-18.88-162.78-7.83-198.76-1.63l62.34-39.87c36.21,3.73,88.66,9.9,136.07,40.74Z"/>
      <path class="cls-10" d="M162.73,245.16c.46.18.9.36,1.36.54,27,10.68,62.83,24.87,96.3,61.35,1.28,2.39,2.56,4.86,3.84,7.39-47.75-27.81-98.69-33.04-133.42-36.59-19.73-2.02-35.87-3.67-40.58-8.54l72.5-24.15Z"/>
      <path class="cls-6" d="M120.66,206.76l49.65.07c5.86,5.73,12.4,11.12,19.41,16.89,17.27,14.23,37.5,30.91,57.49,61.18-28.82-24.91-57.83-36.4-80.67-45.43-24.41-9.66-41.13-16.27-45.89-32.71Z"/>
      <path class="cls-8" d="M272.48,301.1v14.91c-26.44-54.57-55.11-78.18-78.49-97.45-20.75-17.09-36.11-29.74-42.19-57.27l83.63,30.78c4.48,26.32,12.91,39.52,20.38,51.19,8.95,13.99,16.68,26.08,16.68,57.84Z"/>
    </g>
  </g>
  <path class="cls-5" d="M374.36,95.67s-4.99,39.41-28.25,69.3c-19.37,24.91-54.22,26.21-65.3,25.94v-.17s-.6.05-1.71.1c-8.31.41-45.02.53-64.92-25.87-22.55-29.89-27.36-69.3-27.36-69.3l43.12,20.96c21.68,11.61,41.21,21.87,48.99,46.42.07.19.12.41.19.63.05-.22.1-.41.17-.63,8.02-24.55,28.21-34.81,50.58-46.42l44.49-20.96Z"/>
  <path class="cls-5" d="M280.81,190.75v.17c-.65-.02-1.23-.05-1.71-.07,1.11-.05,1.71-.1,1.71-.1Z"/>
  <path class="cls-4" d="M280.81,190.92c.07,18.64,11.73,15.92,10.86,36.73-.43,10.91-11.03,19.49-13.42,30.09-1.01,4.41-1.08,8.94-1.16,13.42-.31,18.45,2.51,33.94-.02,55.21"/>
</svg>